{
  "title": "Whatever Works (2009, DVD.XviD) - Woody Allen, Larry David",
  "uid": 5115905,
  "size": 747257571,
  "categoryP": "video",
  "categoryS": "movies",
  "magnet": "?xt=urn:btih:5671ea6b8e108b57455c5be82e5f404d752a2551&amp;dn=Whatever+Works+%282009%2C+DVD.XviD%29+-+Woody+Allen%2C+Larry+David&amp;tr=udp%3A%2F%2Ftracker.openbittorrent.com%3A80&amp;tr=udp%3A%2F%2Fopen.demonii.com%3A1337&amp;tr=udp%3A%2F%2Ftracker.coppersurfer.tk%3A6969&amp;tr=udp%3A%2F%2Fexodus.desync.com%3A6969",
  "seeders": 68,
  "leechers": 11,
  "uploader": "pure_screens",
  "files": 5,
  "time": 1255061319,
  "description": ".\n\n\n\n43 screenshots (+ DVD-covers): &lt;a href=&quot;\nhttp://www.cmylink.com/WhateverWorks&quot; rel=&quot;nofollow&quot; target=&quot;_NEW&quot;&gt;\nhttp://www.cmylink.com/WhateverWorks&lt;/a&gt;\n\n\n\n\nAttempting to impress his ideologies on religion, relationships, and the randomness (and worthlessness) of existence, lifelong New York resident Boris Yellnikoff rants to anyone who will listen, including the audience. But when he begrudgingly allows naive Mississippi runaway Melodie St. Ann Celestine to live in his apartment, his reclusive rages give way to an unlikely friendship and Boris begins to mold the impressionable young girl's worldly views to match his own. When it comes to love, &quot;whatever works&quot; is his motto, but his already perplexed life complicates itself further when Melodie's parents eventually track her down. \n\n\n\nCast:\tLarry David\t... \tBoris Yellnikoff\n\tAdam Brooks\t... \tBoris' Friend #1\n\tLyle Kanouse\t... \tBoris' Friend #2\n\tMichael McKean\t... \tJoe - Boris' Friend #3\n\tClifford Lee Dickson\t... \tBoy on Street\n\tYolonda Ross\t... \tBoy's Mother\n\tCarolyn McCormick\t... \tJessica\n\tSamantha Bee\t... \tChess Mother\n\tConleth Hill\t... \tLeo Brockman\n\tMarcia DeBonis\t... \tLady at Chinese Restaurant\n\tEvan Rachel Wood\t... \tMelodie St. Ann Celestine\n\tJohn Gallagher Jr.\t... \tPerry\n\tWilla Cuthrell-Tuttleman\t... \tChess Girl\n\tNicole Patrick\t... \tPerry's Friend\n\tPatricia Clarkson\t... \tMarietta\n\n\nDirector:        Woody Allen\nRelease Date:    01 July 2009\nGenre:           Comedy | Romance  \nLanguage:        English\n\nGeneral\nComplete name                    : Whatever Works [2009] LIMITED DVDRip XviD-SAPHiRE\nFormat                           : AVI\nFormat/Info                      : Audio Video Interleave\nFile size                        : 700 MiB\nDuration                         : 1h 31mn\nOverall bit rate                 : 1 068 Kbps\nWriting application              : VirtualDubMod 1.5.10.2 (build 2540/release)\nWriting library                  : VirtualDubMod build 2540/release\n\nVideo\nFormat                           : MPEG-4 Visual\nFormat profile                   : Streaming Video@L1\nFormat settings, BVOP            : Yes\nFormat settings, QPel            : No\nFormat settings, GMC             : No warppoints\nFormat settings, Matrix          : Default\nMuxing mode                      : Packed bitstream\nCodec ID                         : XVID\nCodec ID/Hint                    : XviD\nDuration                         : 1h 31mn\nBit rate                         : 920 Kbps\nWidth                            : 624 pixels\nHeight                           : 352 pixels\nDisplay aspect ratio             : 16/9\nFrame rate                       : 23.976 fps\nResolution                       : 24 bits\nColorimetry                      : 4:2:0\nScan type                        : Progressive\nBits/(Pixel*Frame)               : 0.175\nStream size                      : 603 MiB (86%)\nWriting library                  : XviD 1.2.1 (UTC 2008-12-04)\n\nAudio\nFormat                           : MPEG Audio\nFormat version                   : Version 1\nFormat profile                   : Layer 3\nCodec ID                         : 55\nCodec ID/Hint                    : MP3\nDuration                         : 1h 31mn\nBit rate mode                    : Variable\nBit rate                         : 135 Kbps\nChannel(s)                       : 2 channels\nSampling rate                    : 48.0 KHz\nResolution                       : 16 bits\nStream size                      : 88.5 MiB (13%)\nAlignment                        : Aligned on interleaves\nInterleave, duration             : 24 ms (0.58 video frame)\nInterleave, preload duration     : 145 ms\nWriting library                  : LAME3.90.\nEncoding settings                : VBR (mtrh)\n\n\n\n.",
  "parsed": {
    "xt": "urn:btih:5671ea6b8e108b57455c5be82e5f404d752a2551",
    "dn": "Whatever Works (2009, DVD.XviD) - Woody Allen, Larry David",
    "tr": [
      "udp://exodus.desync.com:6969",
      "udp://open.demonii.com:1337",
      "udp://tracker.coppersurfer.tk:6969",
      "udp://tracker.openbittorrent.com:80"
    ],
    "infoHash": "5671ea6b8e108b57455c5be82e5f404d752a2551",
    "infoHashBuffer": {
      "type": "Buffer",
      "data": [
        86,
        113,
        234,
        107,
        142,
        16,
        139,
        87,
        69,
        92,
        91,
        232,
        46,
        95,
        64,
        77,
        117,
        42,
        37,
        81
      ]
    },
    "name": "Whatever Works (2009, DVD.XviD) - Woody Allen, Larry David",
    "announce": [
      "udp://exodus.desync.com:6969",
      "udp://open.demonii.com:1337",
      "udp://tracker.coppersurfer.tk:6969",
      "udp://tracker.openbittorrent.com:80"
    ],
    "urlList": []
  },
  "previous": 4,
  "peers": 10,
  "last_updated": "2016-12-27T00:44:19.652Z"
}